<svg width="20" height="20" viewBox="0 0 20 20" fill="none" xmlns="http://www.w3.org/2000/svg">
<path d="M19.581 5.83997C19.5724 5.73011 19.5412 5.62321 19.4894 5.52594C19.4376 5.42867 19.3663 5.34312 19.28 5.27462C19.1936 5.20612 19.0941 5.15615 18.9876 5.12782C18.8811 5.09949 18.7699 5.09342 18.661 5.10997C16.919 5.38797 12.835 6.99997 10 6.99997C7.165 6.99997 3.081 5.38797 1.339 5.10997C1.23011 5.09327 1.11894 5.0992 1.01245 5.12741C0.905952 5.15562 0.806422 5.20549 0.720077 5.27391C0.633732 5.34233 0.562428 5.42782 0.510624 5.52505C0.45882 5.62227 0.427629 5.72914 0.419 5.83897C0.277 7.37097 0 11.45 0 12.068C0 12.898 3.472 14.8 6 14.8C8.452 14.8 8.95 12.068 10 12.068C11.05 12.068 11.548 14.8 14 14.8C16.528 14.8 20 12.898 20 12.068C20 11.45 19.723 7.37097 19.581 5.83997ZM7.66 10.72C7.307 11.038 6.325 11.79 5.129 11.555C3.933 11.32 3.21 10.232 2.963 9.79697C2.93376 9.74684 2.9222 9.68834 2.93018 9.63086C2.93816 9.57338 2.96521 9.52024 3.007 9.47997C3.36 9.16197 4.342 8.40997 5.539 8.64497C6.735 8.87997 7.458 9.96797 7.705 10.403C7.73394 10.4533 7.74524 10.5118 7.73708 10.5692C7.72893 10.6267 7.70179 10.6797 7.66 10.72ZM17.037 9.79697C16.791 10.233 16.068 11.32 14.871 11.555C13.675 11.79 12.692 11.038 12.34 10.72C12.2982 10.6797 12.2711 10.6267 12.2629 10.5692C12.2548 10.5118 12.2661 10.4533 12.295 10.403C12.541 9.96697 13.264 8.87997 14.461 8.64497C15.657 8.40997 16.64 9.16197 16.992 9.47997C17.0341 9.52002 17.0615 9.57311 17.0696 9.63065C17.0778 9.68818 17.0663 9.74678 17.037 9.79697Z" fill="black"/>
</svg>
