<svg width="44" height="48" viewBox="0 0 44 48" fill="none" xmlns="http://www.w3.org/2000/svg">
<path d="M22 48C13.331 48 4 46.279 4 42.5V15.5H6V42.5C6 43.688 11.647 46 22 46C32.353 46 38 43.688 38 42.5V15.5H40V42.5C40 46.279 30.669 48 22 48Z" fill="black"/>
<path d="M22 21C13.331 21 4 19.279 4 15.5C4 11.721 13.331 10 22 10C30.669 10 40 11.721 40 15.5C40 19.279 30.669 21 22 21ZM22 12C11.647 12 6 14.312 6 15.5C6 16.688 11.647 19 22 19C32.353 19 38 16.688 38 15.5C38 14.312 32.353 12 22 12Z" fill="black"/>
<path d="M6 27H5C2.243 27 0 24.757 0 22C0 19.243 2.243 17 5 17H6V27ZM4 19.171C2.836 19.584 2 20.696 2 22C2 23.304 2.836 24.416 4 24.829V19.171Z" fill="black"/>
<path d="M39 27H38V17H39C41.757 17 44 19.243 44 22C44 24.757 41.757 27 39 27ZM40 19.171V24.828C41.164 24.415 42 23.303 42 21.999C42 20.695 41.164 19.584 40 19.171Z" fill="black"/>
<path d="M29.001 38.0001C27.6754 37.9965 26.405 37.4688 25.467 36.5321C25.0023 36.0675 24.6346 35.5152 24.3852 34.9074C24.1357 34.2995 24.0096 33.6481 24.014 32.9911C24.022 31.0721 24.013 28.9391 24.006 27.4721L24.003 27.0001H22V29.0001C22 31.2061 20.205 33.0001 17.999 33.0001C16.9389 32.9987 15.9225 32.5772 15.1727 31.8277C14.4229 31.0783 14.0009 30.0622 13.999 29.0021V26.4081C12.078 26.2511 10.259 25.9091 8.689 25.4061C8.56085 25.3686 8.44149 25.3059 8.33796 25.2216C8.23443 25.1373 8.14883 25.0332 8.0862 24.9153C8.02357 24.7974 7.98518 24.6681 7.9733 24.5352C7.96142 24.4022 7.97628 24.2682 8.01701 24.141C8.05774 24.0139 8.12352 23.8962 8.21046 23.7949C8.2974 23.6936 8.40375 23.6107 8.52323 23.5512C8.64272 23.4916 8.77291 23.4566 8.90615 23.4481C9.03938 23.4397 9.17296 23.458 9.299 23.5021C10.962 24.0341 12.949 24.3701 15.047 24.4721L15.998 24.5181L15.999 29.0001C15.999 29.2628 16.0507 29.5229 16.1513 29.7656C16.2518 30.0083 16.3992 30.2289 16.5849 30.4146C16.7707 30.6004 16.9912 30.7477 17.2339 30.8483C17.4767 30.9488 17.7368 31.0006 17.9995 31.0006C18.5301 31.0006 19.0389 30.7898 19.4141 30.4146C19.5998 30.2289 19.7472 30.0083 19.8477 29.7656C19.9483 29.5229 20 29.2628 20 29.0001V25.0001H26L26.005 27.4631C26.012 28.9341 26.022 31.0741 26.013 32.9991C26.01 33.7991 26.319 34.5531 26.884 35.1211C27.4459 35.6822 28.2069 35.9982 29.001 36.0001C30.655 36.0001 32.001 34.6541 32.001 33.0001V24.1311L32.781 23.9551C33.4298 23.8107 34.0724 23.6396 34.707 23.4421C34.8323 23.4027 34.9641 23.3883 35.0949 23.3999C35.2257 23.4114 35.353 23.4486 35.4694 23.5093C35.5859 23.5701 35.6892 23.6531 35.7736 23.7538C35.8579 23.8545 35.9216 23.9708 35.961 24.0961C36.0004 24.2213 36.0147 24.3531 36.0032 24.484C35.9916 24.6148 35.9544 24.7421 35.8937 24.8585C35.833 24.9749 35.7499 25.0783 35.6492 25.1626C35.5486 25.247 35.4323 25.3107 35.307 25.3501C34.897 25.4791 34.459 25.6021 34 25.7191V33.0001C34 35.7571 31.758 38.0001 29.001 38.0001Z" fill="black"/>
<path d="M40 18H38V15C38 7.832 32.168 2 25 2H19C11.832 2 6 7.832 6 15V18H4V15C4 6.729 10.729 0 19 0H25C33.271 0 40 6.729 40 15V18Z" fill="black"/>
</svg>
