<svg width="21" height="20" viewBox="0 0 21 20" fill="none" xmlns="http://www.w3.org/2000/svg">
<path d="M19.2962 7.57458L19.3058 7.58156L19.3157 7.58807C19.4055 7.64702 19.4739 7.7333 19.5108 7.83416C19.5471 7.93332 19.5511 8.04138 19.5222 8.14285L16.0846 18.7155L16.0845 18.7157C16.0506 18.8201 15.9833 18.9105 15.8929 18.9728C15.8026 19.0352 15.6942 19.0661 15.5845 19.0607L15.5723 19.0601H15.5601H4.49009H4.47787L4.46565 19.0607C4.356 19.0661 4.24762 19.0352 4.15725 18.9728C4.06689 18.9105 3.99956 18.8201 3.96565 18.7157L3.96559 18.7155L0.525592 8.13549L0.525046 8.13383C0.492018 8.03344 0.491646 7.92517 0.523986 7.82456C0.556267 7.72413 0.619485 7.63649 0.704588 7.57417C0.704741 7.57406 0.704893 7.57394 0.705046 7.57383L9.70402 1.03458L9.70509 1.0338C9.79072 0.971224 9.89403 0.9375 10.0001 0.9375C10.1061 0.9375 10.2095 0.971224 10.2951 1.0338L10.2962 1.03458L19.2962 7.57458ZM14.8401 18.0601H15.2037L15.3158 17.7142L18.2958 8.51417L18.4076 8.16886L18.1139 7.95555L10.2939 2.27555L10.0005 2.06239L9.70674 2.27519L1.86674 7.95519L1.57182 8.16886L1.68473 8.51511L4.68473 17.7151L4.79722 18.0601H5.16009H14.8401Z" fill="black" stroke="black"/>
</svg>
