<svg width="34" height="34" viewBox="0 0 34 34" fill="none" xmlns="http://www.w3.org/2000/svg">
<path fill-rule="evenodd" clip-rule="evenodd" d="M15.0858 16L14.0264 13.8813L14.0264 13.8813L14.0264 13.8813C12.9171 11.6627 12.3625 10.5534 12.8721 10.0437C13.3818 9.53406 14.4911 10.0887 16.7097 11.198L24.736 15.2112C26.2971 15.9917 27.0776 16.382 27.0776 17C27.0776 17.6181 26.2971 18.0083 24.736 18.7889L16.7097 22.802L16.7097 22.802L16.7097 22.802C14.4911 23.9114 13.3818 24.466 12.8721 23.9564C12.3625 23.4467 12.9171 22.3374 14.0264 20.1188L15.0858 18L21.2426 18C21.7949 18 22.2426 17.5523 22.2426 17C22.2426 16.4478 21.7949 16 21.2426 16L15.0858 16Z" fill="white"/>
</svg>
