<svg width="100" height="100" viewBox="0 0 100 100" fill="none" xmlns="http://www.w3.org/2000/svg">
<g clip-path="url(#clip0_220_2)">
<path d="M6.09 94H93.92V100H6.09V94ZM97.75 61.26L60.85 51.83V33.29C63.9927 31.0009 66.3305 27.776 67.5286 24.0772C68.7267 20.3784 68.7237 16.3953 67.52 12.6983C66.3163 9.00134 63.9737 5.78003 60.8275 3.49566C57.6813 1.21128 53.893 -0.0189819 50.005 -0.0189819C46.117 -0.0189819 42.3287 1.21128 39.1825 3.49566C36.0363 5.78003 33.6937 9.00134 32.49 12.6983C31.2863 16.3953 31.2833 20.3784 32.4814 24.0772C33.6795 27.776 36.0173 31.0009 39.16 33.29V51.83L2.26 61.26L0 61.83V88.5H100V61.83L97.75 61.26Z" fill="black"/>
</g>
<defs>
<clipPath id="clip0_220_2">
<rect width="100" height="100" fill="white"/>
</clipPath>
</defs>
</svg>
