<svg width="14" height="17" viewBox="0 0 14 17" fill="none" xmlns="http://www.w3.org/2000/svg">
<ellipse cx="7" cy="8" rx="6" ry="5" fill="white"/>
<path fill-rule="evenodd" clip-rule="evenodd" d="M13.3939 2.47635L8.18176 0.242565C7.42711 -0.0808548 6.57289 -0.0808551 5.81824 0.242565L0.606081 2.47635C0.238397 2.63393 0 2.99547 0 3.39549V8.64839C0 10.5861 0.935794 12.4045 2.51257 13.5308L5.83752 15.9058C6.53292 16.4025 7.46708 16.4025 8.16248 15.9058L11.4874 13.5308C13.0642 12.4045 14 10.5861 14 8.64839V3.39549C14 2.99547 13.7616 2.63393 13.3939 2.47635ZM10.7809 6.36102C11.1259 5.92976 11.056 5.30047 10.6247 4.95546C10.1934 4.61045 9.56414 4.68037 9.21913 5.11163L5.91708 9.2392L4.70711 8.02922C4.31658 7.6387 3.68342 7.6387 3.29289 8.02922C2.90237 8.41975 2.90237 9.05291 3.29289 9.44344L4.89788 11.0484C5.53005 11.6806 6.57136 11.6229 7.12985 10.9248L10.7809 6.36102Z" fill="#1D9BF0"/>
</svg>
